<svg xmlns="http://www.w3.org/2000/svg" width="18" height="20" viewBox="0 0 18 20">
  <path id="icons8-share" d="M18,2a3.015,3.015,0,0,0-3,3,2.96,2.96,0,0,0,.057.559L7.922,9.721A2.969,2.969,0,0,0,6,9a3,3,0,0,0,0,6,2.969,2.969,0,0,0,1.922-.721l7.135,4.16A2.963,2.963,0,0,0,15,19a3,3,0,1,0,3-3,2.967,2.967,0,0,0-1.922.723L8.943,12.559a2.783,2.783,0,0,0,0-1.117l7.135-4.162A2.969,2.969,0,0,0,18,8a3,3,0,0,0,0-6Zm0,2a1,1,0,1,1-1,1A.985.985,0,0,1,18,4ZM6,11a1,1,0,1,1-1,1A.985.985,0,0,1,6,11Zm12,7a1,1,0,1,1-1,1A.985.985,0,0,1,18,18Z" transform="translate(-3 -2)" fill="#283693"/>
</svg>
