<svg xmlns="http://www.w3.org/2000/svg" width="546" height="363" viewBox="0 0 546 363">
  <g id="Group_31" data-name="Group 31" transform="translate(63 56)">
    <circle id="Ellipse_13" data-name="Ellipse 13" cx="77.5" cy="77.5" r="77.5" transform="translate(257 141)" fill="#17a4b0"/>
    <ellipse id="Ellipse_10" data-name="Ellipse 10" cx="51.5" cy="55.5" rx="51.5" ry="55.5" transform="translate(62 61)" fill="#17a4b0"/>
    <ellipse id="Ellipse_12" data-name="Ellipse 12" cx="18" cy="19.5" rx="18" ry="19.5" transform="translate(80 182) rotate(90)" fill="#3e2a2a"/>
    <circle id="Ellipse_6" data-name="Ellipse 6" cx="92.5" cy="92.5" r="92.5" transform="translate(243 -30)" fill="#ff86a1"/>
    <circle id="Ellipse_3" data-name="Ellipse 3" cx="92.5" cy="92.5" r="92.5" transform="translate(-63 -56)" fill="#fcc745"/>
    <path id="Exclusion_1" data-name="Exclusion 1" d="M-362,178a64.847,64.847,0,0,1-21.539-3.654,64.743,64.743,0,0,1-18.491-10.132,65.215,65.215,0,0,1-14.2-15.364,64.565,64.565,0,0,1-8.66-19.352A65.121,65.121,0,0,0-368,65.363,65.146,65.146,0,0,0-303,130c1.259,0,2.532-.036,3.784-.108a64.571,64.571,0,0,1-8.72,19.207,65.21,65.21,0,0,1-14.189,15.239,64.739,64.739,0,0,1-18.43,10.043A64.863,64.863,0,0,1-362,178Zm-71-48a64.593,64.593,0,0,1-25.3-5.108,64.784,64.784,0,0,1-20.661-13.93A64.785,64.785,0,0,1-492.892,90.3,64.594,64.594,0,0,1-498,65a64.593,64.593,0,0,1,5.108-25.3,64.785,64.785,0,0,1,13.93-20.661A64.784,64.784,0,0,1-458.3,5.108,64.593,64.593,0,0,1-433,0a64.848,64.848,0,0,1,21.539,3.654,64.742,64.742,0,0,1,18.491,10.131,65.212,65.212,0,0,1,14.2,15.364,64.565,64.565,0,0,1,8.66,19.352A65.053,65.053,0,0,0-427,113a65.207,65.207,0,0,0,2.112,16.5A65.9,65.9,0,0,1-433,130Zm133.784-.108h0A65.2,65.2,0,0,0-297,113a65.074,65.074,0,0,0-65-65c-1.26,0-2.533.036-3.784.108A64.578,64.578,0,0,1-357.062,28.9a65.223,65.223,0,0,1,14.189-15.238,64.743,64.743,0,0,1,18.43-10.043A64.854,64.854,0,0,1-303,0a64.6,64.6,0,0,1,25.3,5.108,64.785,64.785,0,0,1,20.661,13.93A64.784,64.784,0,0,1-243.108,39.7,64.593,64.593,0,0,1-238,65a64.728,64.728,0,0,1-17.807,44.7,64.9,64.9,0,0,1-19.443,14.1,64.454,64.454,0,0,1-23.965,6.1ZM-368,64.637h0A65.206,65.206,0,0,0-370.113,48.5c1.436-.179,2.892-.311,4.329-.393A65.169,65.169,0,0,0-368,64.637Z" transform="translate(696 129)" fill="#fcc745"/>
    <rect id="Rectangle_5" data-name="Rectangle 5" width="101" height="116" transform="translate(113 -23)" fill="#3e2a2a"/>
    <circle id="Ellipse_9" data-name="Ellipse 9" cx="56" cy="56" r="56" transform="translate(108 17)" fill="#fd5e36"/>
    <circle id="Ellipse_11" data-name="Ellipse 11" cx="51.5" cy="51.5" r="51.5" transform="translate(-41 149)" fill="#fd5e36"/>
    <circle id="Ellipse_7" data-name="Ellipse 7" cx="77.5" cy="77.5" r="77.5" transform="translate(328)" fill="#17a4b0"/>
  </g>
</svg>
